# xmcd
#
# Track frame offsets:
#	150
#	17913
#	39067
#	54024
#	68362
#	87355
#	103057
#	120816
#	136159
#	158919
#	174429
#	191494
#
# Disc length: 2786 seconds
#
# Revision: 1
# Processed by: cddbd v1.5.2PL0 Copyright (c) Steve Scherf et al.
# Submitted via: audiograbber 1.83.01
#
DISCID=830ae00c
DTITLE=Vince Gill - Down To My Last Bad Habit
DYEAR=2016
DGENRE=Country
TTITLE0=Reasons For The Tears I Cry
TTITLE1=Down To My Last Bad Habit
TTITLE2=Me And My Girl
TTITLE3=Like My Daddy Did
TTITLE4=Make You Feel Real Good
TTITLE5=I Can't Do This
TTITLE6=My Favorite Movie
TTITLE7=One More Mistake I Made ft. Chris Botti
TTITLE8=Take Me Down ft. Little Big Town
TTITLE9=I'll Be Waiting For You ft. Cam
TTITLE10=When It's Love
TTITLE11=Sad One Comin' On (A Song For George Jones)
EXTD=
EXTT0=
EXTT1=
EXTT2=
EXTT3=
EXTT4=
EXTT5=
EXTT6=
EXTT7=
EXTT8=
EXTT9=
EXTT10=
EXTT11=
PLAYORDER=
